<svg xmlns="http://www.w3.org/2000/svg" viewBox="0 0 64 64" fill="none">
  <defs>
    <linearGradient id="badge" x1="8" x2="56" y1="8" y2="56" gradientUnits="userSpaceOnUse">
      <stop offset="0" stop-color="#184A2D" />
      <stop offset="0.55" stop-color="#24723C" />
      <stop offset="1" stop-color="#8BC34A" />
    </linearGradient>
    <linearGradient id="cycleTop" x1="18" x2="50" y1="19" y2="21" gradientUnits="userSpaceOnUse">
      <stop offset="0" stop-color="#A9E06C" />
      <stop offset="1" stop-color="#F5FFCA" />
    </linearGradient>
    <linearGradient id="cycleBottom" x1="46" x2="14" y1="45" y2="42" gradientUnits="userSpaceOnUse">
      <stop offset="0" stop-color="#FFF6D8" />
      <stop offset="1" stop-color="#B6F18F" />
    </linearGradient>
    <linearGradient id="leaf" x1="24" x2="38" y1="18" y2="34" gradientUnits="userSpaceOnUse">
      <stop offset="0" stop-color="#E7FFAE" />
      <stop offset="1" stop-color="#7DD84D" />
    </linearGradient>
  </defs>

  <rect x="4" y="4" width="56" height="56" rx="18" fill="url(#badge)" />
  <rect x="5.5" y="5.5" width="53" height="53" rx="16.5" stroke="#FFFFFF" stroke-opacity="0.14" />

  <path
    d="M17.5 23.8C20.5 17.1 27.1 12.7 34.6 13.2C40.2 13.6 45.1 16.6 48.2 21.1"
    stroke="url(#cycleTop)"
    stroke-width="5"
    stroke-linecap="round"
  />
  <path
    d="M44.8 16.8L50.9 18.1L47.5 23.1"
    fill="#F3FFCB"
    stroke="#F3FFCB"
    stroke-width="1.4"
    stroke-linejoin="round"
  />

  <path
    d="M46.5 40.2C43.5 46.9 36.9 51.3 29.4 50.8C23.8 50.4 18.9 47.4 15.8 42.9"
    stroke="url(#cycleBottom)"
    stroke-width="5"
    stroke-linecap="round"
  />
  <path
    d="M19.2 47.2L13.1 45.9L16.5 40.9"
    fill="#FFF1D0"
    stroke="#FFF1D0"
    stroke-width="1.4"
    stroke-linejoin="round"
  />

  <path
    d="M18 34.2H46V35.2C46 43.1 39.7 49.4 32 49.4C24.3 49.4 18 43.1 18 35.2V34.2Z"
    fill="#FFF4DE"
  />
  <path d="M20.8 34.1H43.2" stroke="#F4D9A6" stroke-width="3.2" stroke-linecap="round" />
  <path
    d="M22.8 42.4C25.3 45 28.4 46.4 32 46.4C35.6 46.4 38.7 45 41.2 42.4"
    stroke="#DEBC79"
    stroke-width="2.5"
    stroke-linecap="round"
    opacity="0.9"
  />

  <path
    d="M33.8 16.6C27.6 17.7 22.7 23.1 22.6 29.6C29.2 29.8 34.9 25.3 36.8 19.2C37.6 16.9 36.3 16.1 33.8 16.6Z"
    fill="url(#leaf)"
  />
  <path d="M31 22.2C31.2 27.3 29 32.3 24.7 36.9" stroke="#143A28" stroke-width="2.4" stroke-linecap="round" />
  <path
    d="M31.5 24.8C27.8 24.1 24.5 25.1 21.8 27.9C23.8 31.5 28.1 33 31.7 31.4C34 30.3 35.8 28.4 36.9 26C35.4 25.6 33.5 25.1 31.5 24.8Z"
    fill="#DAF59A"
    opacity="0.95"
  />
</svg>
